<svg xmlns="http://www.w3.org/2000/svg" viewBox="0 0 364.19 364.19"><defs><style>.cls-1{fill:#00b1f4;}.cls-2{fill:#fff;}</style></defs><title>Asset 1</title><g id="Layer_2" data-name="Layer 2"><g id="Layer_1-2" data-name="Layer 1"><circle class="cls-1" cx="182.1" cy="182.1" r="182.1"/><path class="cls-2" d="M234.72,214.59a30.28,30.28,0,0,1,17.07,5.25V161H117.15V274.23a12.61,12.61,0,0,0,12.57,12.57h109.5a12.61,12.61,0,0,0,12.57-12.57v-4a30.43,30.43,0,1,1-17.07-55.61ZM160.5,273.4a2.58,2.58,0,0,1-2.57,2.57H134.44a2.57,2.57,0,0,1-2.56-2.57V249.91a2.56,2.56,0,0,1,2.56-2.56h23.49a2.57,2.57,0,0,1,2.57,2.56Zm0-38.75a2.58,2.58,0,0,1-2.57,2.57H134.44a2.57,2.57,0,0,1-2.56-2.57V211.17a2.57,2.57,0,0,1,2.56-2.57h23.49a2.57,2.57,0,0,1,2.57,2.57Zm0-40.51a2.58,2.58,0,0,1-2.57,2.57H134.44a2.57,2.57,0,0,1-2.56-2.57V170.66a2.57,2.57,0,0,1,2.56-2.57h23.49a2.57,2.57,0,0,1,2.57,2.57Zm39.6,79.26a2.57,2.57,0,0,1-2.56,2.57H174a2.58,2.58,0,0,1-2.57-2.57V249.91a2.58,2.58,0,0,1,2.57-2.57h23.49a2.57,2.57,0,0,1,2.56,2.57Zm0-38.75a2.57,2.57,0,0,1-2.56,2.57H174a2.58,2.58,0,0,1-2.57-2.57V211.17a2.58,2.58,0,0,1,2.57-2.58h23.49a2.58,2.58,0,0,1,2.56,2.58Zm0-40.51a2.57,2.57,0,0,1-2.56,2.57H174a2.58,2.58,0,0,1-2.57-2.57V170.66a2.58,2.58,0,0,1,2.57-2.58h23.49a2.58,2.58,0,0,1,2.56,2.58Zm10.67,0V170.66a2.58,2.58,0,0,1,2.57-2.58h23.48a2.58,2.58,0,0,1,2.57,2.58v23.48a2.58,2.58,0,0,1-2.57,2.57H213.34A2.58,2.58,0,0,1,210.77,194.14Z"/><path class="cls-2" d="M155.1,172.6H137.27a.89.89,0,0,0-.88.88v17.84a.89.89,0,0,0,.88.88H155.1a.88.88,0,0,0,.88-.88V173.48A.88.88,0,0,0,155.1,172.6Zm-6.49,14.49h-5a2.34,2.34,0,0,1-2.34-2.34V180a2.34,2.34,0,0,1,2.33-2.33,2.31,2.31,0,0,1,1.64.68A2.35,2.35,0,0,1,146,180v2.44h2.64a2.33,2.33,0,0,1,1.66.69,2.34,2.34,0,0,1-1.66,4Z"/><path class="cls-2" d="M234,172.6H216.16a.89.89,0,0,0-.88.88v17.84a.89.89,0,0,0,.88.88H234a.89.89,0,0,0,.88-.88V173.48A.89.89,0,0,0,234,172.6Zm-6.5,14.49h-5a2.33,2.33,0,0,1-1.66-.69,2.3,2.3,0,0,1-.69-1.65.53.53,0,0,1,0-.13.38.38,0,0,1,0-.11V180a2.33,2.33,0,0,1,4-1.65,2.3,2.3,0,0,1,.69,1.65v2.44h2.64a2.36,2.36,0,0,1,2.35,2.35A2.35,2.35,0,0,1,227.5,187.09Z"/><path class="cls-2" d="M194.72,172.6H176.88a.89.89,0,0,0-.88.88v17.84a.89.89,0,0,0,.88.88h17.84a.89.89,0,0,0,.88-.88V173.48A.89.89,0,0,0,194.72,172.6Zm-6.51,14.49h-4.94a2.36,2.36,0,0,1-2.35-2.34V180a2.33,2.33,0,1,1,4.65,0v2.44h2.64a2.35,2.35,0,1,1,0,4.69Z"/><path class="cls-2" d="M155.1,213.11H137.27a.89.89,0,0,0-.88.88v17.83a.89.89,0,0,0,.88.89H155.1a.88.88,0,0,0,.88-.89V214A.88.88,0,0,0,155.1,213.11Zm-6.49,14.49h-5a2.34,2.34,0,0,1-2.34-2.34v-4.8a2.33,2.33,0,0,1,4.66,0v2.45h2.64a2.33,2.33,0,0,1,1.66.69,2.34,2.34,0,0,1-1.66,4Z"/><path class="cls-2" d="M194.72,213.11H176.88a.89.89,0,0,0-.88.88v17.83a.89.89,0,0,0,.88.89h17.84a.89.89,0,0,0,.88-.89V214A.89.89,0,0,0,194.72,213.11Zm-6.51,14.49h-4.94a2.36,2.36,0,0,1-2.35-2.34v-4.8a2.33,2.33,0,0,1,4.65,0v2.45h2.64a2.35,2.35,0,1,1,0,4.69Z"/><path class="cls-2" d="M155.1,251.86H137.27a.89.89,0,0,0-.88.88v17.83a.89.89,0,0,0,.88.88H155.1a.88.88,0,0,0,.88-.88V252.74A.88.88,0,0,0,155.1,251.86Zm-6.49,14.49h-5a2.34,2.34,0,0,1-2.34-2.35v-4.79a2.33,2.33,0,0,1,4.66,0v2.45h2.64A2.36,2.36,0,0,1,151,264,2.35,2.35,0,0,1,148.61,266.35Z"/><path class="cls-2" d="M194.72,251.86H176.88a.89.89,0,0,0-.88.88v17.83a.89.89,0,0,0,.88.88h17.84a.89.89,0,0,0,.88-.88V252.74A.89.89,0,0,0,194.72,251.86Zm-6.51,14.49h-4.94a2.36,2.36,0,0,1-2.35-2.35v-4.79a2.33,2.33,0,0,1,4.65,0v2.45h2.64a2.35,2.35,0,1,1,0,4.69Z"/><path class="cls-2" d="M250.54,226.48A24.35,24.35,0,1,0,259.11,245,24.28,24.28,0,0,0,250.54,226.48Zm-1,20.11a2.22,2.22,0,0,1-1.58.66H234.72a2.1,2.1,0,0,1-2.09-2.09V227.07a2.1,2.1,0,0,1,2.09-2.09,2.08,2.08,0,0,1,1.47.62,2.11,2.11,0,0,1,.61,1.47V242.8H248a2.22,2.22,0,0,1,1.58,3.79Z"/><path class="cls-2" d="M240.41,122.48v-6.24a162.32,162.32,0,0,0-112.12,0l0,8.05-38.53-16v42.05a9.67,9.67,0,0,1,2.38,17.55l7.77,22.31H97.37l-7.44-21.33a9.27,9.27,0,0,1-2.55.4l7.31,21,2.56,7.38H94.5l-2.56-7.38-4.61-13.22-4.73,13.29-2.64,7.44H77.13l2.64-7.42,7.49-21h-.1a9.06,9.06,0,0,1-2.53-.35L77,190.42H74.37l8-22.37a9.66,9.66,0,0,1,2.32-17.69V106.21l-16-6.61L182.1,59.42,295.51,99.6Z"/><path class="cls-2" d="M239.22,136.9H232.4q.09-6.41.17-12.81a131,131,0,0,0-96.33-.55q-.06,6.68-.13,13.36h-6.39a12.61,12.61,0,0,0-12.57,12.57v4.45h24a102.2,102.2,0,0,1,85.76,0h24.88v-4.45A12.61,12.61,0,0,0,239.22,136.9Zm-93.15,9.4a.48.48,0,0,1-.48.48h-3.64a.48.48,0,0,1-.49-.48v-8.53a.48.48,0,0,1,.49-.48h3.64a.48.48,0,0,1,.48.48Zm81.31,0a.48.48,0,0,1-.48.48h-3.64a.47.47,0,0,1-.48-.48v-8.53a.47.47,0,0,1,.48-.48h3.64a.48.48,0,0,1,.48.48Z"/><polygon class="cls-2" points="91.83 197.72 89.14 197.73 87.32 192.52 85.46 197.76 85.45 197.76 82.69 197.78 85.33 190.36 87.32 184.79 89.25 190.33 91.83 197.72"/></g></g></svg>